# xmcd CD database file
#
# Track frame offsets:
#	150
#	14412
#	28471
#	43557
#	61790
#	81932
#	96919
#	112302
#	127782
#	151695
#
# Disc length: 2237 seconds
#
# Revision: 0
# Processed by: cddbd v1.5.2PL0 Copyright (c) Steve Scherf et al.
# Submitted via: CDex 1.51
#
DISCID=7b08bb0a
DTITLE=Alex J. Robinson - Never Say Never
DYEAR=2008
DGENRE=Country
TTITLE0=BREAKIN' ON THE LOVE THING
TTITLE1=Don't Waste My Time
TTITLE2=Me and The Girls
TTITLE3=Not Ready For Love
TTITLE4=The Other Woman
TTITLE5=That's Who I Am
TTITLE6=You Don't Gotta Know
TTITLE7=Without You
TTITLE8=I Don't Wanna Get Over You
TTITLE9=Starting Over
EXTD=YEAR: 2008
EXTT0=
EXTT1=
EXTT2=
EXTT3=
EXTT4=
EXTT5=
EXTT6=
EXTT7=
EXTT8=
EXTT9=
PLAYORDER=
